<svg width="914" height="205" viewBox="0 0 914 205" fill="none" xmlns="http://www.w3.org/2000/svg">
<g clip-path="url(#clip0_6_37)">
<rect width="205" height="205" rx="7.04467" fill="#6B27D8"/>
<path d="M202.626 -8L-9.27866 54.1406C-16.112 80.6198 -24.219 136.781 -5.25649 112.437C18.4466 82.0078 95.1227 51.7394 103.97 59.9062C112.298 67.5937 76.7435 86.4922 60.7279 99.625C47.7627 110.256 -20.3112 158.883 -2.05336 202.125C12.5529 236.719 169.634 177.781 221.845 155.039V109.875L140.165 140.945C115.501 151.089 34.9107 186.237 48.2357 158.562C61.5607 130.887 241.206 37.8047 219.283 14.7422L202.626 -8Z" fill="white"/>
</g>
<path d="M393.548 51.7275C410.007 51.7275 423.932 57.6452 433.73 68.4131C443.517 79.1684 449.07 94.631 449.07 113.526V113.75C449.07 132.643 443.547 148.159 433.791 158.97C424.022 169.795 410.125 175.772 393.66 175.772C377.084 175.772 363.158 169.768 353.389 158.928C343.633 148.102 338.138 132.586 338.138 113.75V113.526C338.138 94.6881 343.662 79.2271 353.419 68.458C363.188 57.6754 377.086 51.7276 393.548 51.7275ZM581.504 51.7275C595.549 51.7275 607.135 55.525 615.234 62.4551C623.359 69.4067 627.836 79.3935 627.836 91.4463V173.531H605.334V157.674C597.65 168.746 584.445 175.772 569.96 175.772C558.061 175.772 547.984 172.177 540.863 165.731C533.729 159.274 529.681 150.06 529.681 139.08V138.855C529.681 128.501 533.74 119.994 541.324 113.911C548.861 107.867 559.762 104.306 573.347 103.511H573.349L605.334 101.686V93.3516C605.334 86.5747 603.13 81.2957 599.146 77.6953C595.141 74.0769 589.152 71.9874 581.28 71.9873C566.759 71.9873 558.124 78.8536 556.071 88.3994L556.069 88.4092L555.846 89.418L555.584 90.5928H533.909L534.058 88.957L534.17 87.7236C535.937 67.6136 553.456 51.7276 581.504 51.7275ZM699.187 51.7275C728.979 51.7275 746.759 71.5757 749.317 92.2686L749.43 93.166L749.641 94.8516H727.717L727.433 93.7158L727.208 92.8193C725.817 87.2546 722.886 82.0573 718.305 78.2549C713.737 74.4635 707.443 71.9873 699.187 71.9873C689.498 71.9873 681.472 75.9835 675.833 83.1289C670.168 90.307 666.839 100.766 666.839 113.75V113.862C666.839 127.182 670.251 137.604 675.975 144.664C681.673 151.694 689.756 155.513 699.411 155.513C707.079 155.513 713.271 153.357 717.919 149.723C722.57 146.086 725.766 140.898 727.32 134.682L727.544 133.784L727.828 132.648H749.895L749.65 134.36L749.538 135.146C746.287 158.129 726.441 175.772 699.411 175.772C682.503 175.772 668.571 169.742 658.881 158.865C649.208 148.007 643.889 132.462 643.889 113.638V113.526C643.889 94.8595 649.326 79.4009 659.024 68.5898C668.737 57.7631 682.608 51.7276 699.187 51.7275ZM859.684 51.7275C875.998 51.7276 889.233 57.8032 898.368 68.4463C907.481 79.064 912.403 94.0941 912.403 111.845V120.518H828.506C828.976 131.514 832.262 140.103 837.659 145.996C843.287 152.141 851.352 155.513 861.364 155.513C875.661 155.513 885.41 148.398 888.523 139.161L888.858 138.157L889.2 137.132H911.276L910.917 138.926L910.693 140.047L910.692 140.046C906.716 160.151 886.935 175.772 860.916 175.772C843.79 175.772 829.937 169.774 820.383 158.973C810.848 148.194 805.73 132.788 805.73 114.198V114.086C805.731 95.7644 810.967 80.1795 820.38 69.1494C829.812 58.097 843.35 51.7275 859.684 51.7275ZM328.137 53.9688V70.2002L327.84 70.5996L265.379 154.392H328.473V173.531H238.5V157.635L238.799 157.235L301.703 73.1084H238.612V53.9688H328.137ZM788.108 29.2275V173.531H765.606V29.2275H788.108ZM575.768 121.636H575.762C568.153 122.074 562.344 123.983 558.474 126.947C554.655 129.872 552.631 133.887 552.631 138.855V139.08C552.631 144.231 554.723 148.359 558.401 151.235C562.117 154.141 567.561 155.849 574.331 155.849C592.026 155.849 605.334 143.72 605.334 127.76V119.827L575.768 121.636ZM393.548 71.9873C383.828 71.9873 375.778 75.7562 370.127 82.7373C364.449 89.7519 361.088 100.144 361.088 113.526V113.75C361.088 127.25 364.423 137.696 370.113 144.735C375.775 151.739 383.878 155.513 393.772 155.513C403.603 155.513 411.621 151.717 417.215 144.701C422.839 137.647 426.12 127.198 426.12 113.75V113.526C426.12 100.081 422.813 89.6918 417.151 82.6953C411.52 75.7352 403.445 71.9873 393.548 71.9873ZM859.571 71.9873C851.464 71.9873 844.317 74.7448 838.937 80.0459C833.831 85.0761 830.221 92.4946 828.973 102.275H889.411C888.284 92.0465 884.864 84.6213 879.934 79.7031C874.757 74.5402 867.766 71.9873 859.571 71.9873ZM523.714 75.082L521.71 74.3662C521.094 74.1463 519.807 73.8804 518.008 73.6729C516.245 73.4694 514.088 73.333 511.791 73.333C504.591 73.333 498.77 75.8275 494.735 80.3164C490.685 84.8225 488.298 91.4931 488.298 100.076V173.531H465.796V53.9688H488.298V68.3662C493.417 58.0856 502.741 51.7275 514.369 51.7275C517.869 51.7276 520.933 52.314 522.427 52.5273L523.714 52.7109V75.082Z" fill="#1E1E1E" stroke="#1E1E1E" stroke-width="3"/>
<defs>
<clipPath id="clip0_6_37">
<rect width="205" height="205" rx="7.04467" fill="white"/>
</clipPath>
</defs>
</svg>
